<svg version="1.2" baseProfile="tiny-ps" xmlns="http://www.w3.org/2000/svg" viewBox="0 0 100 100">
  <title>МастерРядом</title>
  <defs>
    <linearGradient id="g" gradientUnits="userSpaceOnUse" x1="0" y1="0" x2="100" y2="100">
      <stop offset="0" stop-color="#720808"/>
      <stop offset="0.5" stop-color="#a10728"/>
      <stop offset="1" stop-color="#d44a6a"/>
    </linearGradient>
  </defs>
  <rect width="100" height="100" fill="url(#g)"/>
  <g transform="translate(20 20) scale(0.6)">
    <path d="M6 6 A46 46 0 0 1 62 62 A46 46 0 0 1 6 6Z" fill="#ffffff" fill-opacity="0.5"/>
    <path d="M94 6 A46 46 0 0 1 38 62 A46 46 0 0 1 94 6Z" fill="#ffffff" fill-opacity="0.5"/>
    <path d="M94 94 A46 46 0 0 1 38 38 A46 46 0 0 1 94 94Z" fill="#ffffff" fill-opacity="0.5"/>
    <path d="M6 94 A46 46 0 0 1 62 38 A46 46 0 0 1 6 94Z" fill="#ffffff" fill-opacity="0.5"/>
  </g>
</svg>
